# xmcd
#
# Track frame offsets:
#      150
#      20457
#      38802
#      57331
#      73811
#      91890
#      110572
#      129312
#      144625
#      164031
# 
# Disc length: 2433 seconds
#
# Revision: 4
# Processed by: cddbd v1.4PL0 Copyright (c) Steve Scherf et al.
#
# Submitted via: FreeRIP 1.20
#
DISCID=8e097f0a
DTITLE=Wannabeez - Party Mix
DYEAR=2000
DGENRE=Rock
TTITLE0=Party Mix - The Boy Is Mine
TTITLE1=Party Mix - Can't Take My Eyes Off Of You
TTITLE2=Party Mix - Getto Superstar
TTITLE3=Party Mix - I'll Be Missing You
TTITLE4=Party Mix - Believe
TTITLE5=Party Mix - Spank
TTITLE6=Party Mix - Mission Impossible (Instrumental)
TTITLE7=Party Mix - Check Out The Groove
TTITLE8=Party Mix - Dancing Machine
TTITLE9=Party Mix - La Vita
EXTD=
EXTT0=
EXTT1=
EXTT2=male version
EXTT3=
EXTT4=
EXTT5=
EXTT6=
EXTT7=
EXTT8=Female Version
EXTT9=
PLAYORDER=
